<svg width="20" height="20" viewBox="0 0 20 20" fill="none" xmlns="http://www.w3.org/2000/svg">
<g clip-path="url(#clip0_499_111749)">
<path fill-rule="evenodd" clip-rule="evenodd" d="M3.04236 1.86728C2.71496 1.58611 2.22103 1.60062 1.91083 1.91083C1.58539 2.23627 1.58539 2.76391 1.91083 3.08934L4.6549 5.83342H2.50008C2.03984 5.83342 1.66675 6.20652 1.66675 6.66676V13.3334C1.66675 13.7937 2.03984 14.1668 2.50008 14.1668H5.24217L10.3186 18.1554C10.5694 18.3525 10.9108 18.389 11.1977 18.2496C11.4846 18.1101 11.6667 17.8191 11.6667 17.5001V12.8453L16.9108 18.0893C17.2363 18.4148 17.7639 18.4148 18.0893 18.0893C18.3993 17.7794 18.414 17.2861 18.1336 16.9587C18.1173 16.9447 18.1013 16.9299 18.0858 16.9144L3.08595 1.9143C3.07071 1.89906 3.05618 1.88337 3.04236 1.86728ZM6.04524 7.32202L6.10027 7.27878L10.0001 11.1786V15.7855L6.04524 12.6782C5.89842 12.5628 5.7171 12.5001 5.53039 12.5001H3.33341V7.50009H5.53039C5.7171 7.50009 5.89842 7.43738 6.04524 7.32202Z" fill="white"/>
<path d="M17.1448 13.6163C18.7144 10.7667 18.2912 7.11268 15.8753 4.69679L15.5893 4.41083C15.2639 4.0854 14.7363 4.0854 14.4108 4.41083C14.0854 4.73627 14.0854 5.26391 14.4108 5.58934L14.6968 5.8753C16.4539 7.63239 16.8557 10.2315 15.9023 12.3738L17.1448 13.6163Z" fill="white"/>
<path d="M15.0135 11.485C15.5797 9.99793 15.2637 8.25184 14.0656 7.05381L13.9227 6.91083C13.5972 6.5854 13.0696 6.5854 12.7442 6.91083C12.4187 7.23627 12.4187 7.76391 12.7442 8.08934L12.8871 8.23232C13.398 8.74316 13.6415 9.42007 13.6178 10.0893L15.0135 11.485Z" fill="white"/>
<path d="M11.6667 8.13819V2.50009C11.6667 2.18107 11.4846 1.89005 11.1977 1.75059C10.9108 1.61114 10.5694 1.64773 10.3186 1.84482L7.5493 4.02068L8.73625 5.20765L10.0001 4.21464V6.4715L11.6667 8.13819Z" fill="white"/>
</g>
<defs>
<clipPath id="clip0_499_111749">
<rect width="16.6667" height="16.6667" fill="white" transform="translate(1.66675 1.66675)"/>
</clipPath>
</defs>
</svg>
